<?xml version="1.0" encoding="utf-8"?>
<!-- Generator: Adobe Illustrator 18.0.0, SVG Export Plug-In . SVG Version: 6.00 Build 0)  -->
<!DOCTYPE svg PUBLIC "-//W3C//DTD SVG 1.1//EN" "http://www.w3.org/Graphics/SVG/1.1/DTD/svg11.dtd">
<svg version="1.1" id="Layer_1" xmlns="http://www.w3.org/2000/svg" xmlns:xlink="http://www.w3.org/1999/xlink" x="0px" y="0px"
	 viewBox="0 0 64 64" enable-background="new 0 0 64 64" xml:space="preserve">
<g>
	<g>
		<g>
			<path d="M53,4.3L53,4.2C52.3,2.9,51,2,49.5,2H14.6c-1.5,0-2.9,0.8-3.6,2.2L0,32v29c0,0.6,0.4,1,1,1h62c0.6,0,1-0.4,1-1V32L53,4.3
				z M42.6,40c-0.5,1.7-1.8,2-3.6,2H25c-1.8,0-3.3-1.2-3.8-2.9L19,32c0,0-6.7,0-12.3,0l9.2-24h32.1l9.2,24H45
				C45,32,43.5,37.1,42.6,40z"/>
		</g>
	</g>
</g>
</svg>
